<svg width="50" height="50" viewBox="0 0 50 50" fill="none" xmlns="http://www.w3.org/2000/svg">
<circle cx="25" cy="25" r="25" fill="#252525"/>
<path d="M33.0161 14.0669C36.5544 16.6179 38.8571 20.7902 38.8571 25.5125C38.8571 33.2675 32.6342 39.5544 24.9567 39.5714C17.2903 39.5884 11.0112 33.2789 11 25.5351C10.9944 20.8129 13.2971 16.6292 16.8298 14.0726C17.4869 13.602 18.4024 13.8005 18.7955 14.5091L19.6829 16.102C20.0143 16.6973 19.857 17.4512 19.3122 17.8594C16.9814 19.6054 15.4931 22.3719 15.4931 25.5068C15.4875 30.7392 19.6773 35.0363 24.9286 35.0363C30.0732 35.0363 34.3978 30.8299 34.3641 25.4501C34.3472 22.5136 32.9768 19.6791 30.5393 17.8537C29.9945 17.4456 29.8429 16.6916 30.1743 16.102L31.0616 14.5091C31.4548 13.8061 32.3646 13.5964 33.0161 14.0669ZM27.1751 25.966V12.3605C27.1751 11.6066 26.5742 11 25.8272 11H24.03C23.283 11 22.682 11.6066 22.682 12.3605V25.966C22.682 26.7199 23.283 27.3265 24.03 27.3265H25.8272C26.5742 27.3265 27.1751 26.7199 27.1751 25.966Z" fill="white"/>
</svg>
